<svg width="463" height="443" viewBox="0 0 463 443" fill="none" xmlns="http://www.w3.org/2000/svg">
<path d="M1.41936 0.729167C0.831197 0.74797 0.30516 0.972764 0.162458 1.54366C-0.14881 2.78892 0.0829459 5.13741 0.0829459 7.35342C0.0829459 12.1784 0.745178 12.3977 16.1947 12.3977C42.4589 12.3977 58.1294 22.925 62.1022 43.3215C64.53 56.4806 64.53 388.527 61.8815 399.274C57.4673 419.013 41.7968 429.101 16.1947 429.101H4.08295C1.87381 429.101 0.0829459 430.892 0.0829459 433.101V435.681V438.26C0.0829459 440.469 1.87381 442.26 4.08295 442.26H215.054H426.93C428.752 442.26 430.344 441.029 430.802 439.266L433.555 428.663C435.542 420.986 443.046 393.572 450.109 367.692C457.392 341.813 462.689 320.1 462.027 319.442C461.365 318.784 460.261 319.662 459.599 321.416C458.937 323.171 454.081 333.259 449.005 343.787C431.128 379.097 396.918 404.099 358.514 409.582C347.7 411.117 304.22 412.214 245.07 412.433C139.351 412.652 142.352 414.81 133.082 400.774C129.33 395.291 129.198 380.413 128.536 205.836L127.888 22.4018C127.88 20.1607 129.715 18.3504 131.955 18.3883L205.784 19.6352C291.197 20.9511 298.261 21.8284 322.76 34.7681C337.768 42.6636 352.555 57.7965 360.059 73.1487C364.694 82.1407 365.356 86.9657 365.356 106.704C365.356 128.855 365.136 130.171 357.632 143.769C347.92 161.753 333.795 173.158 312.828 179.518C298.482 184.123 292.522 184.562 251.691 184.562C226.751 184.562 204.68 183.904 202.694 183.027C198.942 181.492 198.721 175.789 198.721 106.704V35.917C198.721 33.7079 196.93 31.917 194.721 31.917H171.083H146.44C144.231 31.917 142.44 33.7079 142.44 35.917V212.415C142.44 381.729 142.661 391.817 146.413 395.546C150.165 399.274 157.008 399.493 244.629 399.493C349.023 399.493 362.267 398.177 390.297 385.238C409.94 376.246 428.259 357.384 438.852 335.453C446.798 318.784 448.082 310.274 448.082 292.774C448.082 277.774 446.577 267.025 439.956 253.428C427.817 228.864 403.539 210.88 370.874 201.888L368.665 201.24C365.003 200.167 364.781 195.063 368.335 193.676L369.771 193.115C396.918 182.15 417.885 159.998 426.051 133.461C436.645 99.6861 426.051 61.7442 399.125 37.8386C375.73 16.7841 343.285 5.37957 294.95 1.43185C264.937 -0.911474 17.8145 0.205032 1.41936 0.729167ZM298.702 211.099C333.574 218.776 358.735 237.198 371.536 263.955C377.937 277.333 378.599 281.062 378.599 298.607C378.599 316.591 377.937 319.881 371.316 333.04C359.618 356.726 338.65 371.859 306.868 379.974C295.612 382.825 285.901 383.264 259.416 382.387C241.318 381.729 220.13 380.193 212.626 378.658L201.977 376.643C200.088 376.285 198.721 374.635 198.721 372.712V293.124C198.721 215.924 198.942 210.003 202.694 209.126C204.68 208.468 223.661 208.029 244.629 207.81C272.438 207.59 287.225 208.468 298.702 211.099Z" fill="black"/>
</svg>
